<svg width="243" height="51" viewBox="0 0 243 51" fill="none" xmlns="http://www.w3.org/2000/svg">
<g clip-path="url(#clip0_1_22)">
<path d="M50.3541 0.34375H0.210663V50.4872H50.3541V0.34375Z" fill="white"/>
<path d="M23.6109 28.7591L14.9194 12.5461H18.9309L23.9452 22.7419C23.9452 22.909 24.1124 23.0762 24.2795 23.2433C24.4467 23.4105 24.4467 23.5776 24.6138 23.9119L24.7809 24.079V24.2463C24.9481 24.5806 24.9481 24.7477 25.1152 25.082C25.2824 25.2491 25.2824 25.5834 25.4495 25.7505C25.6167 25.2491 25.9509 24.9148 26.1181 24.2463C26.2852 23.7448 26.6195 23.2433 26.9538 22.7419L31.9681 12.5461H35.6453L26.9538 28.9262V39.2893H23.6109V28.7591Z" fill="black"/>
<path d="M73.2529 10.0388C75.7601 10.0388 77.933 10.7073 79.6045 12.0445L77.933 14.0502C76.4287 13.0473 74.9244 12.3787 73.0858 12.3787C70.2444 12.3787 68.0714 13.8831 66.9014 16.7245C66.2329 18.396 65.8986 20.5689 65.8986 23.4104C65.8986 25.5832 66.2329 27.4218 66.7343 28.759C68.0714 31.9347 70.2444 33.439 73.5872 33.439C75.4258 33.439 77.0973 32.9376 78.6015 31.7675L80.273 33.9405C78.1001 35.2776 75.7601 35.9462 73.2529 35.9462C70.2444 35.9462 67.7372 34.7762 65.7314 32.269C63.7257 29.929 62.89 26.7532 62.89 22.9089C62.89 19.0646 63.8928 16.0559 65.8986 13.5488C67.7372 11.3759 70.2444 10.0388 73.2529 10.0388Z" fill="white"/>
<path d="M82.7803 26.5856C82.7803 23.5771 83.4488 21.237 84.9531 19.5656C86.4575 17.8942 88.2964 16.8912 90.636 16.8912C93.3106 16.8912 95.4832 17.8942 96.9876 20.067C98.1578 21.7384 98.659 24.0785 98.659 26.9199C98.659 30.2628 97.6558 32.9372 95.8173 34.6086C94.48 35.7786 92.8086 36.4472 90.8031 36.4472C88.2964 36.4472 86.4575 35.6115 84.9531 33.7729C83.4488 32.1014 82.7803 29.5943 82.7803 26.5856ZM94.48 21.7384C93.6447 20.2342 92.4745 19.3984 90.636 19.3984C88.7975 19.3984 87.6273 20.067 86.792 21.4042C86.1232 22.407 85.956 24.0785 85.956 26.2513C85.956 29.0928 86.2903 31.0985 87.1261 32.2685C87.9614 33.4386 89.1317 34.1072 90.8031 34.1072C92.8086 34.1072 94.1459 33.1043 94.815 31.2657C95.1491 30.2628 95.3162 28.9257 95.3162 27.2542C95.4832 24.7471 95.1491 22.9085 94.48 21.7384Z" fill="white"/>
<path d="M104.007 22.0727C104.007 20.2342 103.84 18.7299 103.339 17.5598L106.181 16.8912C106.682 17.7269 106.849 18.7299 106.849 19.5656V19.7327C107.517 19.0642 108.186 18.3956 109.19 17.8942C110.359 17.2255 111.362 16.8912 112.364 16.8912C113.869 16.8912 115.206 17.5598 116.042 18.7299C116.209 19.0642 116.543 19.5656 116.71 19.8999C118.716 17.8942 120.555 16.8912 122.561 16.8912C123.898 16.8912 125.068 17.3927 125.904 18.2285C126.739 19.2313 127.241 20.4013 127.241 21.7384V35.6115H124.232V21.9056C124.232 20.067 123.396 19.2313 121.892 19.2313C121.057 19.2313 120.053 19.5656 119.218 20.2342C118.884 20.5684 118.215 21.0699 117.38 21.7384L117.045 22.0727V35.6115H113.869V22.5741C113.869 21.4042 113.702 20.5684 113.368 20.2342C112.866 19.7327 112.364 19.5656 111.529 19.5656C110.192 19.5656 108.688 20.4013 106.849 22.0727V35.7786H104.007V22.0727Z" fill="white"/>
<path d="M132.422 9.36941L135.431 8.70087C135.765 10.0381 135.932 11.5423 135.932 13.3809V17.5595C135.932 18.5624 135.932 19.2309 135.932 19.5653C137.604 17.8938 139.442 17.0581 141.281 17.0581C143.454 17.0581 145.292 17.8938 146.463 19.5653C147.799 21.2367 148.468 23.5767 148.468 26.4182C148.468 29.4269 147.799 31.7668 146.463 33.6054C145.125 35.444 143.287 36.2798 141.114 36.2798C140.111 36.2798 139.275 36.1126 138.272 35.6112C137.27 35.1098 136.6 34.6083 136.099 33.9397C135.932 34.7755 135.765 35.444 135.598 35.9455H132.756C133.091 35.1098 133.258 33.6054 133.258 31.2654V13.7152C133.091 11.7095 132.923 10.2052 132.422 9.36941ZM137.27 20.7353C136.768 21.0696 136.266 21.571 135.932 22.0724V31.5997C137.102 33.104 138.607 33.7725 140.445 33.7725C141.95 33.7725 143.119 33.2711 143.788 32.1011C144.623 30.764 145.125 28.9253 145.125 26.2511C145.125 23.911 144.79 22.2396 143.955 21.2367C143.287 20.2339 142.117 19.7325 140.445 19.7325C139.442 19.5653 138.272 19.8996 137.27 20.7353Z" fill="white"/>
<path d="M152.813 11.7098C152.813 11.0412 152.981 10.5398 153.483 10.0383C153.984 9.53683 154.485 9.36969 155.154 9.36969C155.822 9.36969 156.324 9.53683 156.825 10.0383C157.327 10.5398 157.494 11.0412 157.494 11.7098C157.494 12.3783 157.327 12.8798 156.825 13.3812C156.324 13.8826 155.822 14.0497 155.154 14.0497C154.485 14.0497 153.984 13.8826 153.483 13.3812C152.981 12.8798 152.813 12.3783 152.813 11.7098ZM153.483 35.7786V17.3927L156.491 16.8912V35.7786H153.483Z" fill="white"/>
<path d="M163.01 22.0727C163.01 20.7356 163.01 19.8999 162.843 19.5656C162.843 19.0642 162.509 18.5627 162.174 17.7269L165.015 16.8912C165.517 17.8942 165.684 18.7299 165.684 19.7327C167.523 17.8942 169.528 16.8912 171.534 16.8912C172.537 16.8912 173.372 17.0584 174.209 17.5598C175.044 18.0613 175.713 18.7299 176.047 19.5656C176.381 20.2342 176.548 20.9027 176.548 21.7384V35.7786H173.707V23.2428C173.707 21.7384 173.54 20.7356 173.038 20.2342C172.537 19.7327 171.868 19.3984 171.033 19.3984C170.364 19.3984 169.361 19.7327 168.358 20.2342C167.356 20.7356 166.52 21.4042 165.852 22.0727V35.7786H163.01V22.0727Z" fill="white"/>
<path d="M183.234 21.4042L181.73 19.3984C184.237 17.7269 186.744 16.8912 189.418 16.8912C192.093 16.8912 193.764 17.8942 194.6 19.7327C194.935 20.4013 194.935 21.4042 194.935 22.9085V23.9114L194.767 29.9286C194.767 30.0957 194.767 30.43 194.767 30.7643C194.767 31.7671 194.767 32.4358 194.935 32.9372C195.102 33.6058 195.603 34.1072 196.271 34.4415L194.767 36.4472C193.43 35.9457 192.594 35.11 192.26 33.7729C190.589 35.4443 188.75 36.28 186.912 36.28C185.072 36.28 183.569 35.7786 182.399 34.7758C181.395 33.94 180.894 32.6029 180.894 30.9314C180.894 28.7586 181.73 27.2542 183.401 26.0842C185.072 24.9142 187.58 24.4128 190.589 24.4128C191.09 24.4128 191.424 24.4128 191.926 24.4128V23.0757C191.926 21.5713 191.759 20.5684 191.257 20.2342C190.589 19.5656 189.92 19.2313 188.75 19.2313C187.747 19.2313 186.577 19.5656 185.24 20.067C184.738 20.4013 184.07 20.9027 183.234 21.4042ZM192.093 31.2657L192.26 26.4185C191.424 26.4185 190.923 26.4185 190.756 26.4185C188.081 26.4185 186.41 26.9199 185.407 27.9229C184.738 28.5914 184.404 29.5943 184.404 30.9314C184.404 33.1043 185.407 34.2743 187.58 34.2743C189.585 34.1072 191.09 33.1043 192.093 31.2657Z" fill="white"/>
<path d="M204.461 17.3924H209.141L208.306 19.7324H204.461V31.5997C204.461 32.6025 204.629 33.2711 204.963 33.7725C205.297 34.1068 205.966 34.4412 206.802 34.4412C207.47 34.4412 208.139 34.274 208.64 34.1068L208.974 35.9455C207.972 36.4469 206.969 36.614 205.799 36.614C202.958 36.614 201.62 35.2769 201.62 32.4354V19.7324H199.113V17.3924H201.453V17.0581C201.453 16.7238 201.62 15.3867 201.787 13.2138V12.7123L204.796 12.0438C204.461 14.0495 204.461 15.8881 204.461 17.3924Z" fill="white"/>
<path d="M212.15 26.5856C212.15 23.5771 212.819 21.237 214.324 19.5656C215.66 17.8942 217.666 16.8912 220.006 16.8912C222.681 16.8912 224.853 17.8942 226.358 20.067C227.528 21.7384 228.029 24.0785 228.029 26.9199C228.029 30.2628 227.026 32.9372 225.187 34.6086C223.85 35.7786 222.179 36.4472 220.173 36.4472C217.666 36.4472 215.828 35.6115 214.324 33.7729C212.986 32.1014 212.15 29.5943 212.15 26.5856ZM224.018 21.7384C223.182 20.2342 222.012 19.3984 220.173 19.3984C218.335 19.3984 217.164 20.067 216.329 21.4042C215.66 22.407 215.493 24.0785 215.493 26.2513C215.493 29.0928 215.827 31.0985 216.663 32.2685C217.499 33.4386 218.669 34.1072 220.34 34.1072C222.347 34.1072 223.683 33.1043 224.352 31.2657C224.686 30.2628 224.853 28.9257 224.853 27.2542C224.853 24.7471 224.519 22.9085 224.018 21.7384Z" fill="white"/>
<path d="M233.544 21.7384C233.544 20.067 233.377 18.7299 232.876 17.7269L235.718 16.8912C236.219 17.8942 236.386 18.7299 236.386 19.7327V20.067C237.89 18.0613 239.562 17.0584 241.567 17.0584C241.902 17.0584 242.236 17.0584 242.571 17.2255L241.4 20.4013C241.066 20.2342 240.732 20.2342 240.565 20.2342C239.896 20.2342 239.061 20.4013 238.392 20.9027C237.723 21.4042 237.055 21.9056 236.72 22.5742C236.553 23.0757 236.386 23.7442 236.386 24.5799V36.1129H233.544V21.7384Z" fill="white"/>
</g>
<defs>
<clipPath id="clip0_1_22">
<rect width="242.36" height="50.2031" fill="white" transform="translate(0.210663 0.34375)"/>
</clipPath>
</defs>
</svg>
